<svg xmlns="http://www.w3.org/2000/svg" viewBox="0 0 50 50"><circle cx="25" cy="25" r="25" fill="#1f9ad8"/><circle cx="28.62" cy="31.24" r="5.3" fill="#fff"/><path d="M17.62 10.43s3.93-5.58 7.47-7.52 5.7-2.23 7.29-1.77a10.53 10.53 0 0 1 4.11 2 5 5 0 0 1 .74 1.08 8.46 8.46 0 0 0-5.7.23 19.08 19.08 0 0 0-5.93 3.82c-1.38 1.19-1.42 1.58-1.42 1.58a24.05 24.05 0 0 1 8.51 1.09c5.24 1.48 6.65 3.88 7.5 5.25a11.66 11.66 0 0 1 1.26 3.08 24.25 24.25 0 0 0-10.83-3.76c-6.45-.63-10.44-.63-10.44-.63a62.4 62.4 0 0 0-6.16 12c-2.5 6.67-5.75 16.71-5.75 16.71A38.78 38.78 0 0 1 10 27.77c2.8-8.9 4.85-12.6 4.85-12.6A25.85 25.85 0 0 0 7 16.7a22.43 22.43 0 0 0-6.66 4.17 11.54 11.54 0 0 1 5.42-6.16c4.1-2.38 6.1-3.14 11.86-4.28z" fill="#fbffff"/></svg>